<svg width="50" height="50" viewBox="0 0 50 50" fill="none" xmlns="http://www.w3.org/2000/svg">
<g clip-path="url(#clip0_155_1646)">
<mask id="mask0_155_1646" style="mask-type:luminance" maskUnits="userSpaceOnUse" x="0" y="0" width="50" height="50">
<path d="M50 0H0V50H50V0Z" fill="white"/>
</mask>
<g mask="url(#mask0_155_1646)">
<mask id="mask1_155_1646" style="mask-type:luminance" maskUnits="userSpaceOnUse" x="0" y="0" width="50" height="50">
<path d="M50 0H0V50H50V0Z" fill="white"/>
</mask>
<g mask="url(#mask1_155_1646)">
<path d="M24.9994 15.8213C23.0296 15.8213 21.112 16.4548 19.5298 17.6282C17.9476 18.8016 16.7847 20.4528 16.2129 22.3378H33.786C33.2142 20.4528 32.0513 18.8016 30.4691 17.6282C28.8869 16.4548 26.9693 15.8213 24.9994 15.8213Z" fill="#EF4137"/>
<path d="M24.9996 38.9617C22.7453 38.9629 20.5241 38.4181 18.5261 37.374C16.5281 36.3299 14.8126 34.8175 13.5264 32.9661C12.2401 31.1147 11.4213 28.9793 11.14 26.7426C10.8586 24.5058 11.1231 22.2342 11.9109 20.1219C12.6986 18.0096 13.9861 16.1195 15.6633 14.6131C17.3405 13.1068 19.3576 12.029 21.542 11.4719C23.7265 10.9147 26.0134 10.8949 28.2072 11.414C30.401 11.9331 32.4364 12.9758 34.1395 14.4528L40.3536 8.02014C37.0463 5.02617 32.9365 3.06352 28.529 2.37335C24.1215 1.68318 19.6085 2.29553 15.5443 4.13518C11.4801 5.97484 8.04176 8.96165 5.65183 12.7286C3.2619 16.4956 2.02442 20.8787 2.09145 25.3394C2.15848 29.8001 3.52709 34.144 6.02914 37.8375C8.53118 41.531 12.0577 44.4131 16.1753 46.1299C20.2929 47.8466 24.8224 48.323 29.2071 47.5007C33.5919 46.6784 37.6409 44.5932 40.8567 41.5012L34.439 35.2931C31.8656 37.6591 28.4954 38.9689 24.9996 38.9617Z" fill="#2386C5"/>
<path d="M41.5004 9.14362L35.2923 15.5733C36.7675 17.1814 37.8447 19.1134 38.4371 21.2137C39.0295 23.314 39.1207 25.524 38.7033 27.666H16.2129C16.696 29.2593 17.6034 30.6912 18.8378 31.8084C20.0723 32.9255 21.5874 33.6859 23.2209 34.008C24.8543 34.3302 26.5446 34.202 28.1108 33.6371C29.677 33.0723 31.0601 32.0921 32.1119 30.8015L35.5558 34.1406L41.9855 40.3517C45.8731 36.056 47.9859 30.4453 47.8976 24.6523C47.8092 18.8594 45.5261 13.3157 41.5094 9.14062" fill="#EF4137"/>
</g>
</g>
</g>
<defs>
<clipPath id="clip0_155_1646">
<rect width="50" height="50" fill="white"/>
</clipPath>
</defs>
</svg>
